<mxfile host="app.diagrams.net" modified="2022-10-06T03:41:29.415Z" agent="5.0 (Windows)" etag="aA61DbV9d0nWQyXhwIrf" version="20.4.0" type="github">
  <diagram id="C5RBs43oDa-KdzZeNtuy" name="Page-1">
    <mxGraphModel dx="1887" dy="2194" grid="1" gridSize="10" guides="1" tooltips="1" connect="1" arrows="1" fold="1" page="1" pageScale="1" pageWidth="827" pageHeight="1169" math="0" shadow="0">
      <root>
        <mxCell id="WIyWlLk6GJQsqaUBKTNV-0" />
        <mxCell id="WIyWlLk6GJQsqaUBKTNV-1" parent="WIyWlLk6GJQsqaUBKTNV-0" />
        <mxCell id="tQ2i_T0vIDFmgzzFQNEJ-5" value="" style="edgeStyle=orthogonalEdgeStyle;rounded=0;orthogonalLoop=1;jettySize=auto;html=1;" edge="1" parent="WIyWlLk6GJQsqaUBKTNV-1" target="tQ2i_T0vIDFmgzzFQNEJ-3">
          <mxGeometry relative="1" as="geometry">
            <mxPoint x="370" y="-920" as="sourcePoint" />
            <Array as="points">
              <mxPoint x="370" y="-910" />
              <mxPoint x="370" y="-910" />
            </Array>
          </mxGeometry>
        </mxCell>
        <mxCell id="tQ2i_T0vIDFmgzzFQNEJ-8" style="edgeStyle=orthogonalEdgeStyle;rounded=0;orthogonalLoop=1;jettySize=auto;html=1;exitX=0.5;exitY=1;exitDx=0;exitDy=0;entryX=0.5;entryY=0;entryDx=0;entryDy=0;" edge="1" parent="WIyWlLk6GJQsqaUBKTNV-1" source="tQ2i_T0vIDFmgzzFQNEJ-0" target="tQ2i_T0vIDFmgzzFQNEJ-3">
          <mxGeometry relative="1" as="geometry" />
        </mxCell>
        <mxCell id="tQ2i_T0vIDFmgzzFQNEJ-0" value="START" style="ellipse;whiteSpace=wrap;html=1;rounded=1;glass=0;strokeWidth=1;shadow=0;" vertex="1" parent="WIyWlLk6GJQsqaUBKTNV-1">
          <mxGeometry x="310" y="-1000" width="120" height="60" as="geometry" />
        </mxCell>
        <mxCell id="tQ2i_T0vIDFmgzzFQNEJ-11" style="edgeStyle=orthogonalEdgeStyle;rounded=0;orthogonalLoop=1;jettySize=auto;html=1;exitX=0.5;exitY=1;exitDx=0;exitDy=0;entryX=0.5;entryY=0;entryDx=0;entryDy=0;" edge="1" parent="WIyWlLk6GJQsqaUBKTNV-1" source="tQ2i_T0vIDFmgzzFQNEJ-3" target="tQ2i_T0vIDFmgzzFQNEJ-4">
          <mxGeometry relative="1" as="geometry" />
        </mxCell>
        <mxCell id="tQ2i_T0vIDFmgzzFQNEJ-3" value="prepare a mug, coffe, sugar, hot water, spoon" style="rounded=0;whiteSpace=wrap;html=1;" vertex="1" parent="WIyWlLk6GJQsqaUBKTNV-1">
          <mxGeometry x="310" y="-910" width="120" height="60" as="geometry" />
        </mxCell>
        <mxCell id="tQ2i_T0vIDFmgzzFQNEJ-14" style="edgeStyle=orthogonalEdgeStyle;rounded=0;orthogonalLoop=1;jettySize=auto;html=1;exitX=0.5;exitY=1;exitDx=0;exitDy=0;entryX=0.567;entryY=-0.05;entryDx=0;entryDy=0;entryPerimeter=0;" edge="1" parent="WIyWlLk6GJQsqaUBKTNV-1" source="tQ2i_T0vIDFmgzzFQNEJ-4" target="tQ2i_T0vIDFmgzzFQNEJ-12">
          <mxGeometry relative="1" as="geometry" />
        </mxCell>
        <mxCell id="tQ2i_T0vIDFmgzzFQNEJ-4" value="Add coffe" style="shape=parallelogram;perimeter=parallelogramPerimeter;whiteSpace=wrap;html=1;fixedSize=1;" vertex="1" parent="WIyWlLk6GJQsqaUBKTNV-1">
          <mxGeometry x="310" y="-810" width="120" height="60" as="geometry" />
        </mxCell>
        <mxCell id="tQ2i_T0vIDFmgzzFQNEJ-16" value="" style="edgeStyle=orthogonalEdgeStyle;rounded=0;orthogonalLoop=1;jettySize=auto;html=1;" edge="1" parent="WIyWlLk6GJQsqaUBKTNV-1" source="tQ2i_T0vIDFmgzzFQNEJ-12" target="tQ2i_T0vIDFmgzzFQNEJ-15">
          <mxGeometry relative="1" as="geometry" />
        </mxCell>
        <mxCell id="tQ2i_T0vIDFmgzzFQNEJ-12" value="Add sugar" style="shape=parallelogram;perimeter=parallelogramPerimeter;whiteSpace=wrap;html=1;fixedSize=1;" vertex="1" parent="WIyWlLk6GJQsqaUBKTNV-1">
          <mxGeometry x="300" y="-710" width="120" height="60" as="geometry" />
        </mxCell>
        <mxCell id="tQ2i_T0vIDFmgzzFQNEJ-18" value="" style="edgeStyle=orthogonalEdgeStyle;rounded=0;orthogonalLoop=1;jettySize=auto;html=1;" edge="1" parent="WIyWlLk6GJQsqaUBKTNV-1" source="tQ2i_T0vIDFmgzzFQNEJ-15" target="tQ2i_T0vIDFmgzzFQNEJ-17">
          <mxGeometry relative="1" as="geometry" />
        </mxCell>
        <mxCell id="tQ2i_T0vIDFmgzzFQNEJ-15" value="Add hot water, " style="shape=parallelogram;perimeter=parallelogramPerimeter;whiteSpace=wrap;html=1;fixedSize=1;" vertex="1" parent="WIyWlLk6GJQsqaUBKTNV-1">
          <mxGeometry x="300" y="-610" width="120" height="60" as="geometry" />
        </mxCell>
        <mxCell id="tQ2i_T0vIDFmgzzFQNEJ-20" value="" style="edgeStyle=orthogonalEdgeStyle;rounded=0;orthogonalLoop=1;jettySize=auto;html=1;" edge="1" parent="WIyWlLk6GJQsqaUBKTNV-1" source="tQ2i_T0vIDFmgzzFQNEJ-17" target="tQ2i_T0vIDFmgzzFQNEJ-19">
          <mxGeometry relative="1" as="geometry" />
        </mxCell>
        <mxCell id="tQ2i_T0vIDFmgzzFQNEJ-17" value="stir the coffe" style="rounded=0;whiteSpace=wrap;html=1;" vertex="1" parent="WIyWlLk6GJQsqaUBKTNV-1">
          <mxGeometry x="300" y="-530" width="120" height="60" as="geometry" />
        </mxCell>
        <mxCell id="tQ2i_T0vIDFmgzzFQNEJ-21" style="edgeStyle=orthogonalEdgeStyle;rounded=0;orthogonalLoop=1;jettySize=auto;html=1;" edge="1" parent="WIyWlLk6GJQsqaUBKTNV-1" source="tQ2i_T0vIDFmgzzFQNEJ-19" target="tQ2i_T0vIDFmgzzFQNEJ-12">
          <mxGeometry relative="1" as="geometry">
            <Array as="points">
              <mxPoint x="490" y="-395" />
              <mxPoint x="490" y="-680" />
            </Array>
          </mxGeometry>
        </mxCell>
        <mxCell id="tQ2i_T0vIDFmgzzFQNEJ-23" value="" style="edgeStyle=orthogonalEdgeStyle;rounded=0;orthogonalLoop=1;jettySize=auto;html=1;" edge="1" parent="WIyWlLk6GJQsqaUBKTNV-1" source="tQ2i_T0vIDFmgzzFQNEJ-19" target="tQ2i_T0vIDFmgzzFQNEJ-22">
          <mxGeometry relative="1" as="geometry" />
        </mxCell>
        <mxCell id="tQ2i_T0vIDFmgzzFQNEJ-19" value="&lt;br&gt;&lt;div tabindex=&quot;0&quot; id=&quot;tw-target-text-container&quot; class=&quot;tw-ta-container F0azHf tw-nfl&quot;&gt;&lt;pre dir=&quot;ltr&quot; style=&quot;text-align:left&quot; id=&quot;tw-target-text&quot; data-placeholder=&quot;Terjemahan&quot; class=&quot;tw-data-text tw-text-large tw-ta&quot;&gt;&lt;span class=&quot;Y2IQFc&quot; lang=&quot;en&quot;&gt;sweet enough&lt;br&gt;or not&lt;/span&gt;&lt;/pre&gt;&lt;/div&gt;&lt;br&gt;" style="rhombus;whiteSpace=wrap;html=1;" vertex="1" parent="WIyWlLk6GJQsqaUBKTNV-1">
          <mxGeometry x="300" y="-450" width="120" height="110" as="geometry" />
        </mxCell>
        <mxCell id="tQ2i_T0vIDFmgzzFQNEJ-22" value="STOP" style="ellipse;whiteSpace=wrap;html=1;" vertex="1" parent="WIyWlLk6GJQsqaUBKTNV-1">
          <mxGeometry x="300" y="-300" width="120" height="80" as="geometry" />
        </mxCell>
        <mxCell id="tQ2i_T0vIDFmgzzFQNEJ-24" value="No" style="text;html=1;resizable=0;autosize=1;align=center;verticalAlign=middle;points=[];fillColor=none;strokeColor=none;rounded=0;" vertex="1" parent="WIyWlLk6GJQsqaUBKTNV-1">
          <mxGeometry x="420" y="-420" width="40" height="30" as="geometry" />
        </mxCell>
        <mxCell id="tQ2i_T0vIDFmgzzFQNEJ-25" value="Yes" style="text;html=1;resizable=0;autosize=1;align=center;verticalAlign=middle;points=[];fillColor=none;strokeColor=none;rounded=0;" vertex="1" parent="WIyWlLk6GJQsqaUBKTNV-1">
          <mxGeometry x="360" y="-340" width="40" height="30" as="geometry" />
        </mxCell>
        <mxCell id="tQ2i_T0vIDFmgzzFQNEJ-26" value="&lt;span style=&quot;font-size:28.0pt;font-family:Arial;&lt;br/&gt;mso-ascii-font-family:Arial;mso-fareast-font-family:+mn-ea;mso-bidi-font-family:&lt;br/&gt;+mn-cs;mso-ascii-theme-font:minor-latin;mso-fareast-theme-font:minor-fareast;&lt;br/&gt;mso-bidi-theme-font:minor-bidi;color:black;mso-color-index:1;language:en-US;&lt;br/&gt;mso-style-textfill-type:solid;mso-style-textfill-fill-themecolor:text1;&lt;br/&gt;mso-style-textfill-fill-color:black;mso-style-textfill-fill-alpha:100.0%&quot;&gt;Proses&lt;br/&gt;&lt;/span&gt;&lt;span style=&quot;font-size:28.0pt;font-family:Arial;mso-ascii-font-family:&lt;br/&gt;Arial;mso-fareast-font-family:+mn-ea;mso-bidi-font-family:+mn-cs;mso-ascii-theme-font:&lt;br/&gt;minor-latin;mso-fareast-theme-font:minor-fareast;mso-bidi-theme-font:minor-bidi;&lt;br/&gt;color:black;mso-color-index:1;language:en-US;mso-style-textfill-type:solid;&lt;br/&gt;mso-style-textfill-fill-themecolor:text1;mso-style-textfill-fill-color:black;&lt;br/&gt;mso-style-textfill-fill-alpha:100.0%&quot;&gt;pembuatan&lt;/span&gt;&lt;span style=&quot;font-size:&lt;br/&gt;28.0pt;font-family:Arial;mso-ascii-font-family:Arial;mso-fareast-font-family:&lt;br/&gt;+mn-ea;mso-bidi-font-family:+mn-cs;mso-ascii-theme-font:minor-latin;mso-fareast-theme-font:&lt;br/&gt;minor-fareast;mso-bidi-theme-font:minor-bidi;color:black;mso-color-index:1;&lt;br/&gt;language:en-US;mso-style-textfill-type:solid;mso-style-textfill-fill-themecolor:&lt;br/&gt;text1;mso-style-textfill-fill-color:black;mso-style-textfill-fill-alpha:100.0%&quot;&gt;&lt;br/&gt;kopi yang rasa &lt;/span&gt;&lt;span style=&quot;font-size:28.0pt;font-family:Arial;&lt;br/&gt;mso-ascii-font-family:Arial;mso-fareast-font-family:+mn-ea;mso-bidi-font-family:&lt;br/&gt;+mn-cs;mso-ascii-theme-font:minor-latin;mso-fareast-theme-font:minor-fareast;&lt;br/&gt;mso-bidi-theme-font:minor-bidi;color:black;mso-color-index:1;language:en-US;&lt;br/&gt;mso-style-textfill-type:solid;mso-style-textfill-fill-themecolor:text1;&lt;br/&gt;mso-style-textfill-fill-color:black;mso-style-textfill-fill-alpha:100.0%&quot;&gt;manisnya&lt;/span&gt;&lt;span style=&quot;font-size:28.0pt;font-family:Arial;mso-ascii-font-family:Arial;&lt;br/&gt;mso-fareast-font-family:+mn-ea;mso-bidi-font-family:+mn-cs;mso-ascii-theme-font:&lt;br/&gt;minor-latin;mso-fareast-theme-font:minor-fareast;mso-bidi-theme-font:minor-bidi;&lt;br/&gt;color:black;mso-color-index:1;language:en-US;mso-style-textfill-type:solid;&lt;br/&gt;mso-style-textfill-fill-themecolor:text1;mso-style-textfill-fill-color:black;&lt;br/&gt;mso-style-textfill-fill-alpha:100.0%&quot;&gt; &lt;/span&gt;&lt;span style=&quot;font-size:28.0pt;&lt;br/&gt;font-family:Arial;mso-ascii-font-family:Arial;mso-fareast-font-family:+mn-ea;&lt;br/&gt;mso-bidi-font-family:+mn-cs;mso-ascii-theme-font:minor-latin;mso-fareast-theme-font:&lt;br/&gt;minor-fareast;mso-bidi-theme-font:minor-bidi;color:black;mso-color-index:1;&lt;br/&gt;language:en-US;mso-style-textfill-type:solid;mso-style-textfill-fill-themecolor:&lt;br/&gt;text1;mso-style-textfill-fill-color:black;mso-style-textfill-fill-alpha:100.0%&quot;&gt;tepat&lt;/span&gt;" style="text;html=1;resizable=0;autosize=1;align=center;verticalAlign=middle;points=[];fillColor=none;strokeColor=none;rounded=0;" vertex="1" parent="WIyWlLk6GJQsqaUBKTNV-1">
          <mxGeometry x="280" y="-1160" width="180" height="60" as="geometry" />
        </mxCell>
        <mxCell id="tQ2i_T0vIDFmgzzFQNEJ-27" value="&lt;div&gt;Haura Tsabitah TI03&lt;/div&gt;&lt;div&gt;NIM : 0110222242&lt;br&gt;&lt;/div&gt;" style="text;html=1;resizable=0;autosize=1;align=center;verticalAlign=middle;points=[];fillColor=none;strokeColor=none;rounded=0;" vertex="1" parent="WIyWlLk6GJQsqaUBKTNV-1">
          <mxGeometry x="295" y="-1090" width="130" height="40" as="geometry" />
        </mxCell>
      </root>
    </mxGraphModel>
  </diagram>
</mxfile>
